<?xml version="1.0" encoding="UTF-8"?>
<svg version="1.1" xmlns="http://www.w3.org/2000/svg" width="128" height="128">
<path d="M0 0 C0.495 1.485 0.495 1.485 1 3 C-0.68958569 6.37917138 -4.60128403 6.86243792 -8 8.0625 C-12.8639862 9.45166578 -12.8639862 9.45166578 -17 12 C-16.40516781 24.29319852 -11.30315406 38.66758722 -2 47.125 C1.41641124 49.26025702 3.98768715 50.489342 8 51 C12.36981615 48.61646392 14.06184686 45.48835463 16 41 C17.65 41.33 19.3 41.66 21 42 C20.31953054 47.61387307 18.0303796 52.25161756 13.75 55.9375 C8.51760188 57.95910836 3.9943207 57.70500903 -1.0625 55.5 C-5.0606363 53.32846323 -7.56209538 50.31769377 -10.26171875 46.70703125 C-12.48252228 44.52615228 -13.93891785 44.35985936 -17 44 C-24.25730856 43.00198447 -30.26803343 41.84128505 -36 37 C-38.8628075 32.70578875 -38.70574698 29.03783217 -38 24 C-33.8881757 13.00186802 -23.01932111 7.12035073 -13.0390625 2.34765625 C-8.40196478 0.2913597 -5.05970253 -0.09546609 0 0 Z M-26 17 C-30.35935164 22.05578943 -30.35935164 22.05578943 -32.6875 28.1875 C-31.76159894 31.97527705 -29.95549754 33.53708538 -27 36 C-24.04335481 37.4783226 -21.25770263 37.06032783 -18 37 C-18.7738444 32.86230138 -19.77829292 28.81376732 -20.875 24.75 C-21.20242187 23.50734375 -21.52984375 22.2646875 -21.8671875 20.984375 C-22.24101563 19.99953125 -22.61484375 19.0146875 -23 18 C-23.99 17.67 -24.98 17.34 -26 17 Z " fill="#AE5F7C" transform="translate(64,42)"/>
<path d="M0 0 C3.91258039 2.48501728 6.75419199 4.83323648 9.375 8.65625 C12.26174876 12.36429912 15.13275134 12.58392556 19.6875 13.15625 C21.4509375 13.28773437 21.4509375 13.28773437 23.25 13.421875 C29.38423588 14.2862446 33.89464315 17.02971977 37.6875 21.90625 C38.97902318 26.54053906 39.19217576 29.4930024 37.25 33.90625 C30.606823 45.32003061 18.16165581 52.36245574 5.6875 55.90625 C2.3125 56.03125 2.3125 56.03125 -0.3125 55.90625 C-0.20703125 53.578125 -0.20703125 53.578125 0.6875 50.90625 C3.48828125 49.359375 3.48828125 49.359375 7 48.15625 C8.15113281 47.74890625 9.30226563 47.3415625 10.48828125 46.921875 C12.88337878 46.16152658 15.2393802 45.4623661 17.6875 44.90625 C15.66500302 31.15327056 11.62600979 17.39139136 0.6875 7.90625 C-2.78841207 5.87583328 -5.26562997 5.40039125 -9.3125 5.90625 C-12.89498809 8.56752687 -14.48889433 11.89431753 -16.3125 15.90625 C-17.6325 15.57625 -18.9525 15.24625 -20.3125 14.90625 C-21.53327078 12.02079179 -21.33034488 10.95284497 -20.1875 7.96875 C-15.57638394 0.43726043 -8.68281518 -4.10673691 0 0 Z M17.6875 18.90625 C19.04003464 25.35679982 20.71810233 31.61730679 22.6875 37.90625 C26.81362615 38.35469853 26.81362615 38.35469853 29.4375 35.40625 C31.36010654 32.88656068 32.11091063 30.94738897 32.3125 27.78125 C32.01192516 23.9060236 32.01192516 23.9060236 29.75 21.46875 C25.75467475 19.43031875 22.12394484 19.09955914 17.6875 18.90625 Z " fill="#8A5EB9" transform="translate(61.3125,27.09375)"/>
<path d="M0 0 C0.495 1.485 0.495 1.485 1 3 C0 5 0 5 -2.546875 6.03515625 C-4.13242188 6.54369141 -4.13242188 6.54369141 -5.75 7.0625 C-6.79671875 7.40410156 -7.8434375 7.74570312 -8.921875 8.09765625 C-12 9 -12 9 -14.765625 9.49609375 C-17.18991808 9.83377153 -17.18991808 9.83377153 -19 12 C-19.16677282 15.58343976 -19.16677282 15.58343976 -19 19 C-19.99 19 -20.98 19 -22 19 C-22.66 18.01 -23.32 17.02 -24 16 C-24.99 16 -25.98 16 -27 16 C-27.12375 16.598125 -27.2475 17.19625 -27.375 17.8125 C-28 20 -28 20 -30 23 C-30.99 23 -31.98 23 -33 23 C-33.33 23.99 -33.66 24.98 -34 26 C-34.99 26 -35.98 26 -37 26 C-36.86469603 20.58784127 -34.696601 17.802884 -31.140625 14.015625 C-23.01868051 6.36795464 -11.60759509 -1.3190449 0 0 Z " fill="#B472AB" transform="translate(64,42)"/>
<path d="M0 0 C0 4.94652313 -2.91410699 8.2829016 -6 12 C-14.115963 19.03068887 -24.32016397 23.47476216 -35 24 C-34.89453125 21.671875 -34.89453125 21.671875 -34 19 C-31.19921875 17.453125 -31.19921875 17.453125 -27.6875 16.25 C-26.53636719 15.84265625 -25.38523437 15.4353125 -24.19921875 15.015625 C-21 14 -21 14 -18.64453125 13.546875 C-18.10183594 13.36640625 -17.55914062 13.1859375 -17 13 C-16.08307039 10.24921116 -15.89113917 8.64051087 -15.9375 5.8125 C-15.958125 4.554375 -15.97875 3.29625 -16 2 C-13 4 -13 4 -11 7 C-7.03480543 5.67826848 -4.83924395 4.03505387 -2 1 C-1.34 0.67 -0.68 0.34 0 0 Z " fill="#A176BE" transform="translate(96,59)"/>
<path d="M0 0 C3.69879153 1.16443437 5.24663599 1.8273867 7.375 5.0625 C8.09625695 9.47018137 7.89501338 11.32187488 5.3125 15 C2.375 17.0625 2.375 17.0625 -1.125 17.6875 C-5.58350936 16.89133761 -7.03283917 15.75436542 -9.625 12.0625 C-10.3125 8.5625 -10.3125 8.5625 -9.625 5.0625 C-6.48302168 1.38408636 -4.88568266 0.08423591 0 0 Z M-3.625 6.0625 C-3.295 7.7125 -2.965 9.3625 -2.625 11.0625 C-1.305 11.0625 0.015 11.0625 1.375 11.0625 C1.96570014 9.11646726 1.96570014 9.11646726 2.375 7.0625 C1.30854885 5.76616379 1.30854885 5.76616379 -1.1875 6 C-1.991875 6.020625 -2.79625 6.04125 -3.625 6.0625 Z " fill="#A55E8E" transform="translate(63.625,53.9375)"/>
<path d="M0 0 C0.66 0 1.32 0 2 0 C1.9175 1.2375 1.835 2.475 1.75 3.75 C1.73846468 7.00872649 1.80576484 7.74749429 3.875 10.4375 C5.90705546 12.02417441 5.90705546 12.02417441 8 13 C8 13.66 8 14.32 8 15 C8.62648438 15.02578125 9.25296875 15.0515625 9.8984375 15.078125 C11.12433594 15.16320312 11.12433594 15.16320312 12.375 15.25 C13.59316406 15.31960937 13.59316406 15.31960937 14.8359375 15.390625 C17 16 17 16 18.2890625 18.046875 C18.52367188 18.69140625 18.75828125 19.3359375 19 20 C13.60946738 21.79684421 7.63959378 20.24340993 2.5703125 17.85546875 C-0.82508457 15.79708701 -2.76208216 14.35687676 -5 11 C-5.1953125 8.51953125 -5.1953125 8.51953125 -5.125 5.8125 C-5.10695313 4.91144531 -5.08890625 4.01039062 -5.0703125 3.08203125 C-5.04710938 2.39496094 -5.02390625 1.70789063 -5 1 C-4.67 1.66 -4.34 2.32 -4 3 C-3.01 2.67 -2.02 2.34 -1 2 C-0.67 1.34 -0.34 0.68 0 0 Z " fill="#C55265" transform="translate(31,65)"/>
<path d="M0 0 C1.8871875 0.0309375 1.8871875 0.0309375 3.8125 0.0625 C4.1425 1.0525 4.4725 2.0425 4.8125 3.0625 C6.72916667 4.22916667 6.72916667 4.22916667 8.8125 5.0625 C9.4725 5.3925 10.1325 5.7225 10.8125 6.0625 C11.4375 8.125 11.4375 8.125 11.8125 10.0625 C7.8125 8.0625 7.8125 8.0625 5.94921875 6.97265625 C2.68937991 5.58409601 0.37748442 6.13182309 -2.9921875 6.94921875 C-7.06103856 9.01260408 -8.52171731 12.99430711 -10.1875 17.0625 C-11.5075 16.7325 -12.8275 16.4025 -14.1875 16.0625 C-15.40827078 13.17704179 -15.20534488 12.10909497 -14.0625 9.125 C-10.43799984 3.20498308 -7.07223843 -0.11593833 0 0 Z " fill="#A77FC4" transform="translate(55.1875,25.9375)"/>
<path d="M0 0 C11.44006849 2.88184932 11.44006849 2.88184932 14 7 C15.53902288 12.77133582 15.11721498 16.11180341 12.19140625 21.30078125 C10.73787945 23.37384406 9.19741175 24.74433614 7 26 C7.309375 25.401875 7.61875 24.80375 7.9375 24.1875 C9.10209704 21.91043228 9.10209704 21.91043228 10 19 C9.34 19 8.68 19 8 19 C6.61767557 20.62626404 5.28062485 22.2925002 4 24 C3.34 23.67 2.68 23.34 2 23 C3.2375 21.7625 3.2375 21.7625 4.5 20.5 C6.63484826 17.93939853 7.42046886 16.1533195 7.5625 12.8125 C7.37742782 9.06177053 7.37742782 9.06177053 5.3125 7.1875 C4.549375 6.795625 3.78625 6.40375 3 6 C1.63875 5.1646875 1.63875 5.1646875 0.25 4.3125 C-0.4925 3.879375 -1.235 3.44625 -2 3 C-1.34 2.67 -0.68 2.34 0 2 C0 1.34 0 0.68 0 0 Z " fill="#9362C7" transform="translate(85,42)"/>
<path d="M0 0 C1.32 0 2.64 0 4 0 C4 0.66 4 1.32 4 2 C5.65 1.34 7.3 0.68 9 0 C8.46274105 3.37705625 7.88935377 6.696686 7 10 C5 9 5 9 3 6 C2.01 6 1.02 6 0 6 C-0.12375 6.598125 -0.2475 7.19625 -0.375 7.8125 C-1 10 -1 10 -3 13 C-3.99 13 -4.98 13 -6 13 C-6.33 13.99 -6.66 14.98 -7 16 C-7.99 16 -8.98 16 -10 16 C-9.81976839 8.79073549 -4.79189393 4.79189393 0 0 Z " fill="#C5789B" transform="translate(37,52)"/>
<path d="M0 0 C0.66 0.33 1.32 0.66 2 1 C-6.07951213 9.07951213 -17.48326103 14.79795195 -29 15 C-28.88671875 12.66796875 -28.88671875 12.66796875 -28 10 C-25.26953125 8.48828125 -25.26953125 8.48828125 -21.8125 7.3125 C-20.68457031 6.91675781 -19.55664062 6.52101563 -18.39453125 6.11328125 C-17.27433594 5.74589844 -16.15414062 5.37851563 -15 5 C-13.86949219 4.62230469 -12.73898438 4.24460937 -11.57421875 3.85546875 C-10.29998047 3.43201172 -10.29998047 3.43201172 -9 3 C-9 3.66 -9 4.32 -9 5 C-11.64738916 6.4606285 -12.89448334 7 -16 7 C-15.67 7.66 -15.34 8.32 -15 9 C-13.05886066 8.07005883 -11.1222049 7.1307547 -9.1875 6.1875 C-8.10855469 5.66542969 -7.02960938 5.14335938 -5.91796875 4.60546875 C-3.43420298 3.23889883 -1.8200622 2.12659899 0 0 Z " fill="#966899" transform="translate(90,68)"/>
<path d="M0 0 C0.99 0.33 1.98 0.66 3 1 C0.525 2.485 0.525 2.485 -2 4 C-1.85831863 5.43791516 -1.71148957 6.8753237 -1.5625 8.3125 C-1.48128906 9.11300781 -1.40007813 9.91351563 -1.31640625 10.73828125 C-1.04734307 13.16087179 -1.04734307 13.16087179 0 16 C0.06740865 17.56118428 0.08514456 19.1250252 0.0625 20.6875 C0.05347656 21.49574219 0.04445313 22.30398437 0.03515625 23.13671875 C0.02355469 23.75160156 0.01195312 24.36648437 0 25 C-0.99 25 -1.98 25 -3 25 C-3 24.34 -3 23.68 -3 23 C-3.66 23 -4.32 23 -5 23 C-6.32 18.71 -7.64 14.42 -9 10 C-9.99 10 -10.98 10 -12 10 C-12 9.34 -12 8.68 -12 8 C-10.35 7.67 -8.7 7.34 -7 7 C-6.34 8.32 -5.68 9.64 -5 11 C-5.103125 9.9275 -5.20625 8.855 -5.3125 7.75 C-5 4 -5 4 -2.6875 1.5 C-1.800625 1.005 -0.91375 0.51 0 0 Z " fill="#B8668B" transform="translate(49,50)"/>
<path d="M0 0 C1.65 0.33 3.3 0.66 5 1 C4.30620003 6.72384977 1.99955207 11.40035835 -2.5 15 C-5 16 -5 16 -7.1875 15.8125 C-9 15 -9 15 -11 13 C-10.45730469 12.56429687 -9.91460937 12.12859375 -9.35546875 11.6796875 C-5.09840925 8.1359731 -2.06370485 5.28824368 0 0 Z " fill="#8C6998" transform="translate(80,83)"/>
<path d="M0 0 C2.4375 2.0625 2.4375 2.0625 4 4 C3.01 4.495 3.01 4.495 2 5 C2.04125 5.928125 2.0825 6.85625 2.125 7.8125 C2 11 2 11 0 14 C-1.32 13.67 -2.64 13.34 -4 13 C-3.01 12.67 -2.02 12.34 -1 12 C-1 9.69 -1 7.38 -1 5 C-4.01031744 4.06576355 -4.86650268 3.95550089 -8 5 C-8.73323796 7.01508358 -8.73323796 7.01508358 -9 9 C-10.32 9 -11.64 9 -13 9 C-13.375 6.8125 -13.375 6.8125 -13 4 C-8.79887305 -0.71345951 -6.33653739 -1.99483584 0 0 Z " fill="#A968A7" transform="translate(67,55)"/>
<path d="M0 0 C3.79588866 0.54226981 5.47211993 2.20127563 8 5 C8.33 4.34 8.66 3.68 9 3 C9.66 3.66 10.32 4.32 11 5 C12.68698982 5.75776264 14.39890633 6.46111782 16.125 7.125 C17.03507812 7.47820312 17.94515625 7.83140625 18.8828125 8.1953125 C19.58148438 8.46085937 20.28015625 8.72640625 21 9 C20.67 9.66 20.34 10.32 20 11 C20.99 11.66 21.98 12.32 23 13 C19.18440472 14.14467859 16.64804979 14.16306706 13.0625 12.5625 C8.34051651 9.97945721 5.31847234 6.143606 2 2 C1.34 1.34 0.68 0.68 0 0 Z " fill="#A06080" transform="translate(50,85)"/>
<path d="M0 0 C0.721875 0.268125 1.44375 0.53625 2.1875 0.8125 C0.90687515 2.5199998 -0.43017557 4.18623596 -1.8125 5.8125 C-2.4725 5.8125 -3.1325 5.8125 -3.8125 5.8125 C-3.77125 6.905625 -3.73 7.99875 -3.6875 9.125 C-3.8125 12.8125 -3.8125 12.8125 -5.8125 15.8125 C-7.1325 15.4825 -8.4525 15.1525 -9.8125 14.8125 C-11.03327078 11.92704179 -10.83034488 10.85909497 -9.6875 7.875 C-4.6752451 -0.31168301 -4.6752451 -0.31168301 0 0 Z " fill="#B686B8" transform="translate(50.8125,27.1875)"/>
<path d="M0 0 C0.66 0 1.32 0 2 0 C1.89300781 0.68707031 1.78601562 1.37414062 1.67578125 2.08203125 C1.49595703 3.43361328 1.49595703 3.43361328 1.3125 4.8125 C1.18488281 5.70582031 1.05726562 6.59914063 0.92578125 7.51953125 C0.75108118 10.07024209 0.75108118 10.07024209 2.48046875 11.82421875 C2.98191406 12.21222656 3.48335937 12.60023437 4 13 C3.67 13.99 3.34 14.98 3 16 C2.401875 15.690625 1.80375 15.38125 1.1875 15.0625 C-1.08956772 13.89790296 -1.08956772 13.89790296 -4 13 C-5.26237731 10.47524538 -5.09856404 8.68799534 -5.0625 5.875 C-5.05347656 4.96492188 -5.04445313 4.05484375 -5.03515625 3.1171875 C-5.02355469 2.41851562 -5.01195313 1.71984375 -5 1 C-4.67 1.66 -4.34 2.32 -4 3 C-3.01 2.67 -2.02 2.34 -1 2 C-0.67 1.34 -0.34 0.68 0 0 Z " fill="#D16578" transform="translate(31,65)"/>
<path d="M0 0 C11.35531969 2.86050038 11.35531969 2.86050038 14 7 C14.75 10.75 14.75 10.75 15 14 C14.34 13.67 13.68 13.34 13 13 C12.26924352 10.6859378 11.59861742 8.35171131 11 6 C9.68 6.99 8.36 7.98 7 9 C6.1646875 8.3503125 6.1646875 8.3503125 5.3125 7.6875 C2.95197171 5.96495233 0.52286025 4.47166848 -2 3 C-1.34 2.67 -0.68 2.34 0 2 C0 1.34 0 0.68 0 0 Z " fill="#8C60C9" transform="translate(85,42)"/>
<path d="M0 0 C2.86453858 3.41016497 4.34703566 6.90694544 6 11 C5.34 11 4.68 11 4 11 C4 10.34 4 9.68 4 9 C3.01 9.33 2.02 9.66 1 10 C1 10.66 1 11.32 1 12 C-2.63 11.34 -6.26 10.68 -10 10 C-10 9.67 -10 9.34 -10 9 C-7.69 9 -5.38 9 -3 9 C-3.66 7.02 -4.32 5.04 -5 3 C-4.34 3 -3.68 3 -3 3 C-3 3.66 -3 4.32 -3 5 C-2.01 5 -1.02 5 0 5 C0 3.35 0 1.7 0 0 Z " fill="#B85A72" transform="translate(49,70)"/>
<path d="M0 0 C0.33 0.99 0.66 1.98 1 3 C0 5 0 5 -2.28515625 5.8515625 C-3.65994141 6.23441406 -3.65994141 6.23441406 -5.0625 6.625 C-5.98160156 6.88539062 -6.90070312 7.14578125 -7.84765625 7.4140625 C-8.55792969 7.60742188 -9.26820312 7.80078125 -10 8 C-10 6.68 -10 5.36 -10 4 C-10.66 3.34 -11.32 2.68 -12 2 C-7.8794254 0.00214565 -4.54805635 -0.17835515 0 0 Z " fill="#A870B1" transform="translate(64,42)"/>
<path d="M0 0 C0.66 0 1.32 0 2 0 C2 0.66 2 1.32 2 2 C2.66 2 3.32 2 4 2 C4.69640673 4.12209776 5.38188357 6.24778527 6.0625 8.375 C6.44535156 9.55835938 6.82820313 10.74171875 7.22265625 11.9609375 C8 15 8 15 7 17 C6.01 15.35 5.02 13.7 4 12 C3.01 12.495 3.01 12.495 2 13 C1.47212358 11.02270019 0.95287097 9.04309608 0.4375 7.0625 C0.00244141 5.40927734 0.00244141 5.40927734 -0.44140625 3.72265625 C-0.62574219 2.82417969 -0.81007813 1.92570312 -1 1 C-0.67 0.67 -0.34 0.34 0 0 Z " fill="#9768B6" transform="translate(77,50)"/>
<path d="M0 0 C5.37295382 2.68647691 8.03147875 4.77540259 11 10 C10.67 10.66 10.34 11.32 10 12 C5.55657483 11.49217998 3.33608462 9.90838146 0 7 C-1.32901064 5.99426222 -2.66073801 4.99204592 -4 4 C-0.04179141 4.56545837 2.6659053 5.80902348 6 8 C6 7.01 6 6.02 6 5 C5.38125 4.690625 4.7625 4.38125 4.125 4.0625 C2.75 3.375 1.375 2.6875 0 2 C0 1.34 0 0.68 0 0 Z " fill="#916CBD" transform="translate(60,27)"/>
<path d="M0 0 C1.67542976 0.28604898 3.34385343 0.61781233 5 1 C4.30620003 6.72384977 1.99955207 11.40035835 -2.5 15 C-5.23946523 16.09578609 -6.30836841 16.09659065 -9 15 C-8.0925 14.608125 -7.185 14.21625 -6.25 13.8125 C-1.16679555 10.97763598 1.13584027 7.43713256 3 2 C2.01 2 1.02 2 0 2 C-0.66 3.32 -1.32 4.64 -2 6 C-1.125 1.125 -1.125 1.125 0 0 Z " fill="#7F6490" transform="translate(80,83)"/>
<path d="M0 0 C2 1 2 1 2 1 Z M4 -1 C4.33 -0.01 4.66 0.98 5 2 C3.75 4.1875 3.75 4.1875 2 6 C1.01 6 0.02 6 -1 6 C-1.33 6.99 -1.66 7.98 -2 9 C-2.99 9 -3.98 9 -5 9 C-4.25 3.25 -4.25 3.25 -2 1 C0.625 1.375 0.625 1.375 3 2 C3.33 1.01 3.66 0.02 4 -1 Z " fill="#CB7187" transform="translate(32,59)"/>
<path d="M0 0 C1.32 0.99 2.64 1.98 4 3 C4.33 2.34 4.66 1.68 5 1 C5.66 1 6.32 1 7 1 C7 3.97 7 6.94 7 10 C6.01 10 5.02 10 4 10 C4 9.34 4 8.68 4 8 C3.34 8 2.68 8 2 8 C0.74335022 5.09399739 0 3.20395416 0 0 Z " fill="#BB627E" transform="translate(42,65)"/>
<path d="M0 0 C0.99 1.32 1.98 2.64 3 4 C-0.85421412 12.6309795 -0.85421412 12.6309795 -5 15 C-4.690625 14.401875 -4.38125 13.80375 -4.0625 13.1875 C-2.26026265 9.7496194 -2.26026265 9.7496194 -2.625 6.0625 C-3 4 -3 4 -1.5625 1.75 C-1.046875 1.1725 -0.53125 0.595 0 0 Z " fill="#9B69CA" transform="translate(97,53)"/>
<path d="M0 0 C0.66 0.33 1.32 0.66 2 1 C1.67 1.99 1.34 2.98 1 4 C0.34 3.34 -0.32 2.68 -1 2 C-3.91538029 1.49957854 -3.91538029 1.49957854 -7 2 C-9.29215045 3.79191032 -9.29215045 3.79191032 -11 6 C-11.66 6.66 -12.32 7.32 -13 8 C-12.7181109 4.61733079 -12.16935563 3.18927982 -9.875 0.625 C-6.12240698 -1.49603083 -4.11231233 -1.00868038 0 0 Z " fill="#995E93" transform="translate(67,55)"/>
<path d="M0 0 C0.721875 0.268125 1.44375 0.53625 2.1875 0.8125 C0.90687515 2.5199998 -0.43017557 4.18623596 -1.8125 5.8125 C-2.4725 5.8125 -3.1325 5.8125 -3.8125 5.8125 C-3.8125 6.4725 -3.8125 7.1325 -3.8125 7.8125 C-4.4725 7.8125 -5.1325 7.8125 -5.8125 7.8125 C-5.8125 7.1525 -5.8125 6.4925 -5.8125 5.8125 C-6.4725 5.4825 -7.1325 5.1525 -7.8125 4.8125 C-3.50480769 -0.23365385 -3.50480769 -0.23365385 0 0 Z " fill="#B490C6" transform="translate(50.8125,27.1875)"/>
<path d="M0 0 C0 4.07746885 -1.52068051 5.83198065 -4 9 C-6.25 9.875 -6.25 9.875 -8 10 C-7.52723148 5.74508335 -5.07452523 3.77457155 -2 1 C-1.34 0.67 -0.68 0.34 0 0 Z " fill="#A176D0" transform="translate(96,59)"/>
<path d="M0 0 C0.99 0.33 1.98 0.66 3 1 C3 1.66 3 2.32 3 3 C3.66 3 4.32 3 5 3 C4.67 4.65 4.34 6.3 4 8 C2.02 7.34 0.04 6.68 -2 6 C-1.34 4.02 -0.68 2.04 0 0 Z " fill="#C2607B" transform="translate(50,78)"/>
<path d="M0 0 C3.63 0.66 7.26 1.32 11 2 C10.01 3.485 10.01 3.485 9 5 C5.87550419 5.49334144 4.41817986 5.24864748 1.6875 3.625 C1.130625 3.08875 0.57375 2.5525 0 2 C0 1.34 0 0.68 0 0 Z " fill="#CF596E" transform="translate(36,79)"/>
<path d="M0 0 C2.70191251 1.46049325 3.74963003 2.26975425 4.75 5.1875 C4.87375 6.0846875 4.87375 6.0846875 5 7 C1 5 1 5 -0.9375 3.875 C-3.41109822 2.82559469 -5.33953538 2.85219641 -8 3 C-8 2.34 -8 1.68 -8 1 C-5.19084526 -0.40457737 -3.11189466 -0.24895157 0 0 Z " fill="#9D78C8" transform="translate(62,29)"/>
<path d="M0 0 C2.31 0.33 4.62 0.66 7 1 C7 1.33 7 1.66 7 2 C5.35 2 3.7 2 2 2 C2.33 3.98 2.66 5.96 3 8 C2.67 7.34 2.34 6.68 2 6 C0.68 6.33 -0.64 6.66 -2 7 C-1.34 4.69 -0.68 2.38 0 0 Z " fill="#845BB5" transform="translate(77,44)"/>
<path d="M0 0 C0.99 0 1.98 0 3 0 C1.14285714 7.57142857 1.14285714 7.57142857 -2 10 C-2.66 9.67 -3.32 9.34 -4 9 C-2.68 6.03 -1.36 3.06 0 0 Z " fill="#9677AF" transform="translate(80,85)"/>
<path d="M0 0 C0.66 0.99 1.32 1.98 2 3 C0.56656 3.53190541 -0.87195367 4.05015258 -2.3125 4.5625 C-3.51326172 4.99755859 -3.51326172 4.99755859 -4.73828125 5.44140625 C-7 6 -7 6 -10 5 C-9 3 -9 3 -6.93359375 2.1484375 C-5.69802734 1.76558594 -5.69802734 1.76558594 -4.4375 1.375 C-3.61121094 1.11460938 -2.78492187 0.85421875 -1.93359375 0.5859375 C-1.29550781 0.39257812 -0.65742187 0.19921875 0 0 Z " fill="#AE729B" transform="translate(72,76)"/>
<path d="M0 0 C4.75 0.75 4.75 0.75 7 3 C6.67 3.99 6.34 4.98 6 6 C5.401875 5.690625 4.80375 5.38125 4.1875 5.0625 C1.91043228 3.89790296 1.91043228 3.89790296 -1 3 C-0.67 2.01 -0.34 1.02 0 0 Z " fill="#D75E73" transform="translate(28,75)"/>
<path d="M0 0 C0.86625 0.3403125 0.86625 0.3403125 1.75 0.6875 C1.75 1.6775 1.75 2.6675 1.75 3.6875 C-0.23 4.3475 -2.21 5.0075 -4.25 5.6875 C-4.25 5.0275 -4.25 4.3675 -4.25 3.6875 C-4.91 3.3575 -5.57 3.0275 -6.25 2.6875 C-2.80384615 -0.38942308 -2.80384615 -0.38942308 0 0 Z " fill="#BE7AA6" transform="translate(45.25,48.3125)"/>
<path d="M0 0 C1.67542976 0.28604898 3.34385343 0.61781233 5 1 C4.67 2.65 4.34 4.3 4 6 C3.34 6 2.68 6 2 6 C2.33 4.68 2.66 3.36 3 2 C2.01 2 1.02 2 0 2 C-0.66 3.32 -1.32 4.64 -2 6 C-1.125 1.125 -1.125 1.125 0 0 Z " fill="#886A9C" transform="translate(80,83)"/>
<path d="M0 0 C0.66 0 1.32 0 2 0 C2.25 2.75 2.25 2.75 2 6 C0 8.375 0 8.375 -2 10 C-1.34 6.7 -0.68 3.4 0 0 Z " fill="#955F97" transform="translate(69,60)"/>
<path d="M0 0 C0.99 0.33 1.98 0.66 3 1 C2.67 2.32 2.34 3.64 2 5 C1.34 5 0.68 5 0 5 C-0.33 5.66 -0.66 6.32 -1 7 C-1.66 6.67 -2.32 6.34 -3 6 C-2.42655063 3.13275314 -2.1385485 2.1385485 0 0 Z " fill="#CD7794" transform="translate(33,56)"/>
<path d="M0 0 C1.98 0 3.96 0 6 0 C6.33 0.99 6.66 1.98 7 3 C6.67 3.66 6.34 4.32 6 5 C2.9375 5.625 2.9375 5.625 0 6 C0.66 5.34 1.32 4.68 2 4 C2.99 4 3.98 4 5 4 C5 3.34 5 2.68 5 2 C3.35 1.67 1.7 1.34 0 1 C0 0.67 0 0.34 0 0 Z " fill="#9063A6" transform="translate(58,42)"/>
<path d="M0 0 C0.33 0.66 0.66 1.32 1 2 C1.99 1.67 2.98 1.34 4 1 C4 2.32 4 3.64 4 5 C3.34 5 2.68 5 2 5 C2 5.66 2 6.32 2 7 C1.34 7 0.68 7 0 7 C0 4.69 0 2.38 0 0 Z " fill="#D46C80" transform="translate(26,66)"/>
<path d="M0 0 C0.66 0 1.32 0 2 0 C1.34 2.31 0.68 4.62 0 7 C-1.32 6.67 -2.64 6.34 -4 6 C-2.7260411 3.96166576 -1.38938077 1.96147874 0 0 Z " fill="#B46A9C" transform="translate(58,57)"/>
<path d="M0 0 C-2.39509338 2.89932357 -4.31245243 3.50168276 -8 4 C-7 1 -7 1 -5.125 -0.25 C-3 -1 -3 -1 0 0 Z " fill="#A478B4" transform="translate(81,74)"/>
<path d="M0 0 C0.99 0 1.98 0 3 0 C3.33 1.32 3.66 2.64 4 4 C2.02 4.99 2.02 4.99 0 6 C0 4.02 0 2.04 0 0 Z " fill="#A06EC5" transform="translate(85,66)"/>
</svg>
